<svg width="16" height="16" viewBox="0 0 16 16" xmlns="http://www.w3.org/2000/svg"><g fill-rule="nonzero" fill="#000"><path d="M11.635 7.48l.527.526-.527.528v.975l1.496-1.51-1.496-1.502z"/><path d="M10.29 7.48l.526.526-.527.528v.975l1.496-1.51-1.496-1.502zM9.255 8.488c-.072-.098-.137-.203-.209-.306a.745.745 0 0 0 .585-.748c0-.579-.377-.807-1.015-.807-.325 0-.618.007-.852.02V9.36h.632V8.3h.026l.644 1.06h.761l-.572-.872zm-.696-.625c-.066-.006-.13-.013-.163-.013v-.696c.039-.007.11-.007.176-.007.293 0 .422.13.422.345.001.228-.17.37-.435.37zM6.984 6.647l-.272 1.685-.274-1.685H5.8l-.272 1.685-.274-1.685h-.63l.48 2.719h.716l.305-1.744.306 1.744h.716l.481-2.72zM2.893 7.44c.02.906 1.087.67 1.087 1.132 0 .195-.17.287-.397.287-.195 0-.429-.059-.578-.117l-.026.6c.184.04.371.058.56.058.695 0 1.111-.39 1.111-.917 0-.847-1.086-.69-1.086-1.113 0-.156.124-.266.39-.266.163 0 .365.038.515.084v-.554a2.79 2.79 0 0 0-.494-.053c-.679.013-1.095.345-1.082.86"/></g></svg>