<?xml version="1.0" encoding="UTF-8"?>
<svg width="512px" height="512px" viewBox="0 0 512 512" version="1.1" xmlns="http://www.w3.org/2000/svg" xmlns:xlink="http://www.w3.org/1999/xlink">
    <title>SWR-Icons-SWR-audio-lab-2021-smooth@3x</title>
    <g id="SWR-Icons-SWR-audio-lab-2021-smooth" stroke="none" stroke-width="1" fill="none" fill-rule="evenodd">
        <g id="audio-lab-A-color" transform="translate(26.000000, 26.000000)">
            <path d="M460,229.996057 C460,102.974952 357.025048,0 229.996057,0 C102.974952,0 0,102.974952 0,229.996057 C0,357.025048 102.974952,460 229.996057,460 C357.025048,460 460,357.025048 460,229.996057 Z M328.570302,229.996057 C328.570302,284.437053 284.437053,328.570302 229.996057,328.570302 C175.562947,328.570302 131.429698,284.437053 131.429698,229.996057 C131.429698,175.55506 175.562947,131.429698 229.996057,131.429698 C284.437053,131.429698 328.570302,175.55506 328.570302,229.996057 L328.570302,229.996057 Z" id="Fill-849" fill="#43CFFA"></path>
            <polygon id="Fill-851" fill="#B443FA" points="328 460 460 460 460 0 328 0"></polygon>
            <path d="M460,231.5 C460,139.460956 406.043564,60.0244735 328,23 L328,440 C406.043564,402.967615 460,323.531133 460,231.5" id="Fill-853" fill="#072555"></path>
        </g>
    </g>
</svg>